<?xml version="1.0" encoding="UTF-8"?>
<svg id="Camada_2" data-name="Camada 2" xmlns="http://www.w3.org/2000/svg" viewBox="0 0 528.29 176.02">
  <defs>
    <style>
      .cls-1 {
        fill: #b0804d;
      }

      .cls-2 {
        font-family: Bahnschrift, Bahnschrift;
        font-size: 29.07px;
        font-variation-settings: 'wght' 400, 'wdth' 100;
      }

      .cls-2, .cls-3 {
        fill: #707f54;
      }

      .cls-4 {
        fill: #8b9b4c;
      }

      .cls-5 {
        letter-spacing: -.05em;
      }

      .cls-6 {
        letter-spacing: -.04em;
      }

      .cls-7 {
        letter-spacing: -.02em;
      }

      .cls-8 {
        letter-spacing: 0em;
      }
    </style>
  </defs>
  <g id="Camada_1-2" data-name="Camada 1">
    <g>
      <path class="cls-4" d="M63.61,58.76c-10.16,6.47-21.88,11.19-34.21,10.49-8.86-.5-17.28-3.49-24.68-8.32.37-1.7,1.05-3.09,1.68-4.59l1.69-4.04c22.92,3.84,45.08-7.49,62.8-20.83,7.16-5.39,13.43-9.71,21.6-13.5,13.35-6.19,27.48-8.47,41.74-3.77,3.53,1.16,6.87,2.65,10.05,4.57,3.49,2.11,6.15,4.98,9.34,7.92-1.24-.42-2.44-.93-3.82-1.52-12.51-5.39-26.47-5.34-39.04-.15-3.43,1.41-6.5,2.9-9.69,4.82-4.82,2.91-9.32,6.06-13.63,9.68-2.24,1.88-4.32,3.59-6.46,5.61-5.41,5.12-11.05,9.61-17.37,13.63Z"/>
      <path class="cls-1" d="M178.93,96.12c-3.71-7.8-9.77-13.52-17.72-16.48-11.04-4.11-22.8-2.4-33.94.65-5.34,1.62-10.43,3.39-15.72,5.39-.1-4.86-1.58-9.14-4.62-13.02,4.38-2.02,8.64-3.31,13.09-4.79,7.11-2.35,14.27-3.87,21.73-4.63,11.95-.99,23.27.91,32.35,9.14,1.44,1.3,2.49,2.87,3.78,4.36.65.75,1.1,1.62,1.19,2.66.53,5.78.9,10.77-.15,16.74Z"/>
      <path class="cls-1" d="M68.09,85.79c.1,4.61,1.41,9.05,4.4,12.82-12.79,5.35-29.32,10.94-43.42,10.45-7.54-.26-14.93-2.01-21.03-6.59-2.73-2.05-6.3-4.71-7.26-8.02-1.59-5.49-.28-11.25-.07-16.81,2,3.6,14.38,14.6,26.17,14.6,12.67,1.34,27.56-.97,39.26-5.83.66-.28,1.25-.54,1.95-.62Z"/>
      <g>
        <path class="cls-3" d="M107.57,7.43c-15.65,1.76-28.63,9.11-40.92,18.54-8.09,6.21-17.7,12.34-27.28,15.99-10.07,3.84-17.74,5.59-28.7,5.18,8.89-16.23,22.34-28.98,38.88-37.48C62.9,2.82,78.56-.54,93.53.07c8.5.35,16.69,1.91,24.75,4.55,4.5,1.47,8.53,3.46,12.73,5.37-.54.54-.84-.05-1.21-.19-3.53-1.33-7.12-2.01-10.88-2.41-2.45-.26-8.84-.24-11.35.04Z"/>
        <path class="cls-3" d="M48.16,165.56c20.58,7.09,40.45-.07,57.73-11.54,2.75-1.83,5.28-3.58,7.89-5.66,15.9-12.63,35.07-22.46,56.31-21.61-4.03,7.97-9.22,15.62-15.99,22l-5.6,5.27c-12.29,10.24-25.6,16.91-41.38,20.1-7.28,1.47-14.42,1.91-21.88,1.66-12.62-.42-26.13-4.05-37.07-10.21Z"/>
      </g>
      <path class="cls-4" d="M66,163.29c-11.02,1.44-21.22-1.06-30.73-6.49-2.64-1.51-4.79-3.17-6.98-5.28-1.76-1.7-3.62-3.19-5.07-5.24,12.76,6.92,26.39,8.93,40.31,3.63,7.13-2.72,13.49-6.65,19.5-11.3,1.6-1.23,3.04-2.34,4.53-3.67l7.62-6.83c4.71-4.22,9.43-8.17,14.69-11.72,20.87-14.05,43.22-17.95,65-3.23.45.31.54.81.38,1.29-.81,2.42-1.72,4.7-2.75,7-1.1.1-2.03-.05-3.11-.17-17.3-1.88-33.88,4.18-48.43,13.1-5.28,3.24-10.02,6.83-14.99,10.5-11.68,8.64-25.38,16.5-39.97,18.41Z"/>
      <g>
        <path class="cls-1" d="M54.1,142.74c-12.25,4.04-24.77,3.16-34.9-5.2-4.72-3.89-8.36-8.6-11.16-14.02-2.56-4.95-3.85-10.02-5.4-15.32-.23-.8-.54-1.67-.32-2.47,4.4,4.37,8.87,8.06,14.14,10.76,8.23,4.21,14.34,5.38,23.58,5.03,12.98-.49,30.3-9.07,41.67-15.54,8.16,3.11,16.73,1.58,23.15-4.53,1.69-1.61,2.87-3.5,4.2-5.44.38-.55,1.41-.53,2.05-.77,8.99-3.38,18.26-5.27,27.86-5.83,6.72-.39,16.16.95,22.41,3.67,4.73,2.06,9.05,4.56,12.87,7.99,1.17,1.05,2.6,1.92,3.33,3.36.42.83-.27,2.03-.49,2.89-4.56-3.4-9.26-6.4-14.63-8.41-9.31-3.49-19.01-3.79-28.64-1.49-8.35,2-16.49,5.43-23.92,9.78-6.67,3.9-12.92,8.17-18.99,13.02-11.07,8.85-23.22,18.05-36.81,22.52Z"/>
        <path class="cls-1" d="M96.28,65.14c-9.96-3-20.67,1.16-25.44,10.47-12.34,4.84-25.12,8.31-38.53,7.62-8.26-.42-16.16-2.96-23.06-7.41-1.29-.83-6.34-4.63-6.87-5.82-.36-.81.41-1.69.44-2.76,4.44,2.91,9.03,5.72,14.33,7.47,7.79,2.57,15.82,2.77,23.87,1.29,5.68-1.04,10.88-2.99,16.12-5.31,11.04-4.91,20.95-11.99,30.25-19.6,10.56-8.63,22.57-17.49,35.84-21.34,7.39-2.15,15.2-2.56,22.59-.45,11.05,3.15,19.69,11.66,24.95,21.57,2.76,5.21,4.43,10.08,5.91,15.86-1.34-1.06-2.07-2.07-3.14-2.95l-4.48-3.68c-1.57-1.29-3.2-2.23-4.94-3.29-4.65-2.84-9.66-4.73-15.01-5.91-17.85-3.92-37.44,5.91-52.82,14.25Z"/>
      </g>
      <text class="cls-2" transform="translate(201.3 133.27)"><tspan x="0" y="0">Observatório de </tspan><tspan class="cls-6" x="215.36" y="0">P</tspan><tspan x="232.18" y="0">olíticas</tspan><tspan x="0" y="34.88">de G</tspan><tspan class="cls-7" x="57.85" y="34.88">o</tspan><tspan class="cls-8" x="73.12" y="34.88">v</tspan><tspan x="87.37" y="34.88">ernança de </tspan><tspan class="cls-5" x="240.11" y="34.88">T</tspan><tspan x="252.54" y="34.88">erras</tspan></text>
      <g>
        <path class="cls-3" d="M201.07,49.27c0-25.25,20.04-44.4,46.18-44.4s46.18,19.15,46.18,44.4-20.04,44.09-46.23,44.09-46.13-19.05-46.13-44.09ZM270.83,49.12c0-12.99-10.23-23.01-23.58-23.01s-23.59,10.02-23.59,23.01,10.23,22.91,23.59,22.91,23.58-9.97,23.58-22.91Z"/>
        <path class="cls-3" d="M304.39,7.11h31.78c17.32,0,31.78,13.04,31.78,29.48s-14.14,29.85-31.78,29.85h-9.44v24.79h-22.33V7.11ZM346.39,36.7c0-5.11-4.28-8.97-10.23-8.97h-9.44v18.11l9.44.05c6,.05,10.23-4.02,10.23-9.18Z"/>
        <path class="cls-3" d="M463.9,51.1c0,25.57-19.31,42.11-43.2,42.11-26.72,0-46.91-19.93-46.91-43.93s20.25-44.2,46.34-44.2c10.7.16,23.06,4.7,30,11.11l-12.37,16.96c-4.7-4.38-11.43-7.2-17.64-7.2-12.52,0-23.53,10.28-23.53,23.27,0,11.79,9.44,23.27,24.99,23.27,10.17,0,17.43-4.9,17.74-12.94h-19.25v-16.65h43.15c.42,2.82.68,5.53.68,8.19Z"/>
        <path class="cls-3" d="M528.29,27.98h-20.14v63.24h-22.38V27.98h-20.19V7.11h62.72v20.87Z"/>
      </g>
    </g>
  </g>
</svg>